<mxfile host="app.diagrams.net" modified="2023-06-08T18:38:25.783Z" agent="Mozilla/5.0 (Windows NT 10.0; Win64; x64; rv:109.0) Gecko/20100101 Firefox/114.0" etag="9Q-iUJqz0T12DSBnxqhY" version="21.3.7" type="github">
  <diagram name="Page-1" id="NWF3Eid90m07Zp9LZsn0">
    <mxGraphModel dx="2500" dy="1532" grid="0" gridSize="10" guides="1" tooltips="1" connect="1" arrows="1" fold="1" page="0" pageScale="1" pageWidth="850" pageHeight="1100" background="#ffffff" math="0" shadow="0">
      <root>
        <mxCell id="0" />
        <mxCell id="1" parent="0" />
        <mxCell id="aUvwZGzup3Zl2crr3WL--2" value="&lt;font style=&quot;font-size: 30px;&quot;&gt;Lock Mutex&lt;br&gt;&lt;/font&gt;" style="shape=cube;whiteSpace=wrap;html=1;boundedLbl=1;backgroundOutline=1;darkOpacity=0.05;darkOpacity2=0.1;labelBackgroundColor=none;fillColor=#09555B;strokeColor=#BAC8D3;fontColor=#EEEEEE;" vertex="1" parent="1">
          <mxGeometry x="267.5" y="-232" width="345" height="98" as="geometry" />
        </mxCell>
        <mxCell id="aUvwZGzup3Zl2crr3WL--16" value="" style="curved=1;endArrow=classic;html=1;rounded=0;strokeColor=#0B4D6A;edgeStyle=orthogonalEdgeStyle;entryX=0;entryY=0;entryDx=162.5;entryDy=0;entryPerimeter=0;exitX=1;exitY=0.5;exitDx=0;exitDy=0;" edge="1" parent="1" source="aUvwZGzup3Zl2crr3WL--7" target="aUvwZGzup3Zl2crr3WL--4">
          <mxGeometry width="50" height="50" relative="1" as="geometry">
            <mxPoint x="583" y="248" as="sourcePoint" />
            <mxPoint x="928" y="375" as="targetPoint" />
          </mxGeometry>
        </mxCell>
        <mxCell id="aUvwZGzup3Zl2crr3WL--3" value="&lt;font style=&quot;font-size: 30px;&quot;&gt;Read data from BRAM&lt;br&gt;&lt;/font&gt;" style="shape=cube;whiteSpace=wrap;html=1;boundedLbl=1;backgroundOutline=1;darkOpacity=0.05;darkOpacity2=0.1;labelBackgroundColor=none;fillColor=#09555B;strokeColor=#BAC8D3;fontColor=#EEEEEE;" vertex="1" parent="1">
          <mxGeometry x="267.5" y="-59" width="345" height="98" as="geometry" />
        </mxCell>
        <mxCell id="aUvwZGzup3Zl2crr3WL--4" value="&lt;font style=&quot;font-size: 30px;&quot;&gt;Print Failure&lt;br&gt;&lt;/font&gt;" style="shape=cube;whiteSpace=wrap;html=1;boundedLbl=1;backgroundOutline=1;darkOpacity=0.05;darkOpacity2=0.1;labelBackgroundColor=none;fillColor=#09555B;strokeColor=#BAC8D3;fontColor=#EEEEEE;" vertex="1" parent="1">
          <mxGeometry x="747" y="380" width="345" height="98" as="geometry" />
        </mxCell>
        <mxCell id="aUvwZGzup3Zl2crr3WL--5" value="&lt;font style=&quot;font-size: 30px;&quot;&gt;Print Success&lt;br&gt;&lt;/font&gt;" style="shape=cube;whiteSpace=wrap;html=1;boundedLbl=1;backgroundOutline=1;darkOpacity=0.05;darkOpacity2=0.1;labelBackgroundColor=none;fillColor=#09555B;strokeColor=#BAC8D3;fontColor=#EEEEEE;" vertex="1" parent="1">
          <mxGeometry x="-212" y="380" width="345" height="98" as="geometry" />
        </mxCell>
        <mxCell id="aUvwZGzup3Zl2crr3WL--6" value="&lt;font style=&quot;font-size: 30px;&quot;&gt;Unlock Mutex&lt;br&gt;&lt;/font&gt;" style="shape=cube;whiteSpace=wrap;html=1;boundedLbl=1;backgroundOutline=1;darkOpacity=0.05;darkOpacity2=0.1;labelBackgroundColor=none;fillColor=#09555B;strokeColor=#BAC8D3;fontColor=#EEEEEE;" vertex="1" parent="1">
          <mxGeometry x="254.5" y="610" width="371" height="98" as="geometry" />
        </mxCell>
        <mxCell id="aUvwZGzup3Zl2crr3WL--7" value="&lt;div style=&quot;font-size: 30px;&quot;&gt;&lt;font style=&quot;font-size: 30px;&quot;&gt;Is sent data same as &lt;br&gt;&lt;/font&gt;&lt;/div&gt;&lt;div style=&quot;font-size: 30px;&quot;&gt;&lt;font style=&quot;font-size: 30px;&quot;&gt;received data&lt;/font&gt;&lt;/div&gt;" style="rhombus;whiteSpace=wrap;html=1;labelBackgroundColor=none;fillColor=#09555B;strokeColor=#BAC8D3;fontColor=#EEEEEE;" vertex="1" parent="1">
          <mxGeometry x="257" y="93" width="364" height="311" as="geometry" />
        </mxCell>
        <mxCell id="aUvwZGzup3Zl2crr3WL--11" value="" style="endArrow=none;html=1;rounded=0;strokeColor=#0B4D6A;entryX=0;entryY=0.633;entryDx=0;entryDy=0;entryPerimeter=0;exitX=0;exitY=0;exitDx=345;exitDy=59;exitPerimeter=0;" edge="1" parent="1" source="aUvwZGzup3Zl2crr3WL--5" target="aUvwZGzup3Zl2crr3WL--4">
          <mxGeometry width="50" height="50" relative="1" as="geometry">
            <mxPoint x="406" y="473" as="sourcePoint" />
            <mxPoint x="456" y="423" as="targetPoint" />
          </mxGeometry>
        </mxCell>
        <mxCell id="aUvwZGzup3Zl2crr3WL--12" value="" style="endArrow=classic;html=1;rounded=0;strokeColor=#0B4D6A;" edge="1" parent="1">
          <mxGeometry width="50" height="50" relative="1" as="geometry">
            <mxPoint x="439.38" y="440" as="sourcePoint" />
            <mxPoint x="439.38" y="600" as="targetPoint" />
          </mxGeometry>
        </mxCell>
        <mxCell id="aUvwZGzup3Zl2crr3WL--18" value="" style="curved=1;endArrow=classic;html=1;rounded=0;strokeColor=#0B4D6A;edgeStyle=orthogonalEdgeStyle;entryX=0;entryY=0;entryDx=162.5;entryDy=0;entryPerimeter=0;exitX=0;exitY=0.5;exitDx=0;exitDy=0;align=center;" edge="1" parent="1" source="aUvwZGzup3Zl2crr3WL--7" target="aUvwZGzup3Zl2crr3WL--5">
          <mxGeometry x="-0.0002" width="50" height="50" relative="1" as="geometry">
            <mxPoint x="279" y="290" as="sourcePoint" />
            <mxPoint x="-10" y="159" as="targetPoint" />
            <mxPoint as="offset" />
          </mxGeometry>
        </mxCell>
        <mxCell id="aUvwZGzup3Zl2crr3WL--19" value="&lt;font style=&quot;font-size: 30px;&quot; color=&quot;#f00000&quot;&gt;YES&lt;/font&gt;" style="text;html=1;align=center;verticalAlign=middle;resizable=0;points=[];autosize=1;strokeColor=none;fillColor=none;fontColor=#EEEEEE;" vertex="1" parent="1">
          <mxGeometry x="6.5" y="225" width="78" height="48" as="geometry" />
        </mxCell>
        <mxCell id="aUvwZGzup3Zl2crr3WL--20" value="&lt;font style=&quot;font-size: 30px;&quot; color=&quot;#f00000&quot;&gt;NO&lt;/font&gt;" style="text;html=1;align=center;verticalAlign=middle;resizable=0;points=[];autosize=1;strokeColor=none;fillColor=none;fontColor=#EEEEEE;" vertex="1" parent="1">
          <mxGeometry x="808" y="225" width="63" height="48" as="geometry" />
        </mxCell>
        <mxCell id="aUvwZGzup3Zl2crr3WL--21" value="" style="endArrow=classic;html=1;rounded=0;strokeColor=#0B4D6A;" edge="1" parent="1">
          <mxGeometry width="50" height="50" relative="1" as="geometry">
            <mxPoint x="438.29" y="39" as="sourcePoint" />
            <mxPoint x="438" y="94" as="targetPoint" />
          </mxGeometry>
        </mxCell>
        <mxCell id="aUvwZGzup3Zl2crr3WL--22" value="" style="endArrow=classic;html=1;rounded=0;strokeColor=#0B4D6A;" edge="1" parent="1">
          <mxGeometry width="50" height="50" relative="1" as="geometry">
            <mxPoint x="438.29" y="-131" as="sourcePoint" />
            <mxPoint x="438" y="-56" as="targetPoint" />
          </mxGeometry>
        </mxCell>
      </root>
    </mxGraphModel>
  </diagram>
</mxfile>
